<svg id="Layer_1" data-name="Layer 1" xmlns="http://www.w3.org/2000/svg" viewBox="0 0 32 32"><defs><style>.cls-1{fill:#00de6f;}.cls-2{fill:#352f5d;}</style></defs><g id="logo_group"><g id="top"><path class="cls-1" d="M21.83,3.39V5.93a.23.23,0,0,1-.37.18,13.77,13.77,0,0,0-8.67-3.05l-.83,0a.22.22,0,0,1-.07-.43,13.91,13.91,0,0,1,9.81.53A.23.23,0,0,1,21.83,3.39Z"/><path class="cls-1" d="M6.62,5.6A.57.57,0,0,1,7,5.46h3.29c6.45,0,8.83.92,11.4,3.74a.42.42,0,0,1,.13.34v3a.15.15,0,0,1-.27.08c-2.73-3.9-5.14-4.72-11.26-4.72H5a.19.19,0,0,1-.15-.31A14.15,14.15,0,0,1,6.62,5.6Z"/></g><g id="bottom"><path class="cls-1" d="M10.23,28.61V26.07a.23.23,0,0,1,.36-.18,13.82,13.82,0,0,0,8.68,3.05l.82,0a.22.22,0,0,1,.08.43,13.91,13.91,0,0,1-9.81-.53A.23.23,0,0,1,10.23,28.61Z"/><path class="cls-1" d="M25.44,26.39a.57.57,0,0,1-.38.14H21.77c-6.45,0-8.83-.92-11.4-3.73a.44.44,0,0,1-.13-.35V19.5a.15.15,0,0,1,.27-.08c2.73,3.9,5.14,4.73,11.26,4.73h5.29a.19.19,0,0,1,.15.31A14.07,14.07,0,0,1,25.44,26.39Z"/></g><g id="right"><path class="cls-2" d="M28.61,21.7H26.07a.23.23,0,0,1-.18-.37,13.78,13.78,0,0,0,3.05-8.68c0-.27,0-.54,0-.82a.22.22,0,0,1,.43-.08A13.92,13.92,0,0,1,30,16a13.78,13.78,0,0,1-1.18,5.61A.23.23,0,0,1,28.61,21.7Z"/><path class="cls-2" d="M26.39,6.49a.57.57,0,0,1,.14.38v3.29c0,6.45-.92,8.82-3.73,11.39a.42.42,0,0,1-.35.14H19.5a.15.15,0,0,1-.08-.28c3.9-2.72,4.73-5.13,4.73-11.25V4.87a.2.2,0,0,1,.31-.16A14.15,14.15,0,0,1,26.39,6.49Z"/></g><g id="left"><path class="cls-2" d="M5.6,25.38A.59.59,0,0,1,5.46,25V21.71c0-6.45.92-8.83,3.74-11.4a.42.42,0,0,1,.34-.13h3a.15.15,0,0,1,.08.27c-3.9,2.73-4.72,5.14-4.72,11.26V27a.2.2,0,0,1-.31.16A14.15,14.15,0,0,1,5.6,25.38Z"/><path class="cls-2" d="M3.39,10.17H5.93a.23.23,0,0,1,.18.36,13.82,13.82,0,0,0-3.05,8.68c0,.28,0,.55,0,.82a.22.22,0,0,1-.43.08,13.91,13.91,0,0,1,.53-9.81A.23.23,0,0,1,3.39,10.17Z"/></g></g></svg>